# xmcd
#
# Track frame offsets: 
#        150
#        13156
#        25600
#        38030
#        51797
#        65385
#        78692
#        93297
#        107663
#        120454
#        133011
#        144979
#        155329
#        167795
#        180104
#        191682
#        204077
#        216704
#        230097
#        242583
#        254254
#        266201
#        276085
#        288066
#        300740
#        312307
#
# Disc length: 4314 seconds
#
# Revision: 1
# Processed by: cddbd v1.5.2PL0 Copyright (c) Steve Scherf et al.
# Submitted via: ExactAudioCopy v0.95a5
#
DISCID=6b10d81a
DTITLE=Blind Boy Fuller - Volume 2 - Disc D
DYEAR=2006
DGENRE=Blues
TTITLE0=Floyd 'Dipper Boy' Council - Runaway Man Blues
TTITLE1=Floyd 'Dipper Boy' Council - I'm Grievin' and I'm Worryin'
TTITLE2=Floyd 'Dipper Boy' Council - Don't Want No Hungry Woman
TTITLE3=Floyd 'Dipper Boy' Council - Working Man Blues
TTITLE4=Floyd 'Dipper Boy' Council - Poor And Ain't Got A Dime
TTITLE5=Floyd 'Dipper Boy' Council - Lookin' For My Baby
TTITLE6=Welly Trice - Come On In Here Mama
TTITLE7=Welly Trice - Let Her Go God Bless Her
TTITLE8=Little Boy Fuller (Rich Trice) - Come On Baby
TTITLE9=Little Boy Fuller (Rich Trice) - Trembling Bed Springs
TTITLE10=Little Boy Fuller (Rich Trice) - Shake Your Stuff
TTITLE11=Little Boy Fuller (Rich Trice) - Lazy Bug Blues
TTITLE12=Little Boy Fuller (Rich Trice) - Bed Spring Blues
TTITLE13=Little Boy Fuller (Rich Trice) - Pack It Up And Go
TTITLE14=Little Boy Fuller (Rich Trice) - Blood Red River Blues
TTITLE15=Little Boy Fuller (Rich Trice) - Down-Hearted Man
TTITLE16=Frank Edwards - Sweet Man Blues
TTITLE17=Frank Edwards - Three Woman Blues
TTITLE18=Frank Edwards - Terraplane Blues
TTITLE19=Frank Edwards - We Got To Get Together
TTITLE20=Frank Edwards - Love My Baby
TTITLE21=Frank Edwards - Gotta Get Together
TTITLE22=Dennis McMillon - Woke Up One Morning
TTITLE23=Dennis McMillon - Poor Little Angel Girl
TTITLE24=Dennis McMillon - Paper Wooden Daddy
TTITLE25=Dennis McMillon - Goin' Back Home
EXTD=
EXTT0=
EXTT1=
EXTT2=
EXTT3=
EXTT4=
EXTT5=
EXTT6=
EXTT7=
EXTT8=
EXTT9=
EXTT10=
EXTT11=
EXTT12=
EXTT13=
EXTT14=
EXTT15=
EXTT16=
EXTT17=
EXTT18=
EXTT19=
EXTT20=
EXTT21=
EXTT22=
EXTT23=
EXTT24=
EXTT25=
PLAYORDER=
